<svg width="50" height="50" viewBox="0 0 50 50" fill="none" xmlns="http://www.w3.org/2000/svg">
<path d="M39.1416 14.7977L38.3083 11.4643C38.2632 11.2841 38.1591 11.1241 38.0127 11.0098C37.8662 10.8954 37.6858 10.8333 37.5 10.8333H32.5C32.3141 10.8333 32.1337 10.8954 31.9872 11.0098C31.8408 11.1241 31.7367 11.2841 31.6916 11.4643L30.8583 14.7977C30.8276 14.9205 30.8252 15.0488 30.8515 15.1727C30.8777 15.2966 30.9319 15.4128 31.0098 15.5127C31.0877 15.6125 31.1874 15.6933 31.3012 15.7488C31.415 15.8043 31.54 15.8333 31.6666 15.8333H38.3333C38.46 15.8333 38.5849 15.8043 38.6987 15.7488C38.8126 15.6933 38.9122 15.6125 38.9901 15.5127C39.0681 15.4128 39.1222 15.2966 39.1485 15.1727C39.1747 15.0488 39.1724 14.9205 39.1416 14.7977Z" fill="#191919"/>
<path d="M40.8333 14.1667H9.16667C6.86548 14.1667 5 16.0322 5 18.3334V35.0001C5 37.3012 6.86548 39.1667 9.16667 39.1667H40.8333C43.1345 39.1667 45 37.3012 45 35.0001V18.3334C45 16.0322 43.1345 14.1667 40.8333 14.1667Z" fill="white"/>
<path d="M40.8333 14.1667H9.16667C8.062 14.1681 7.00294 14.6074 6.22182 15.3886C5.44071 16.1697 5.0013 17.2287 5 18.3334V22.5001H45V18.3334C44.9987 17.2287 44.5593 16.1697 43.7782 15.3886C42.9971 14.6074 41.938 14.1681 40.8333 14.1667Z" fill="white"/>
<path d="M30.8333 34.9999C35.4357 34.9999 39.1667 31.2689 39.1667 26.6666C39.1667 22.0643 35.4357 18.3333 30.8333 18.3333C26.231 18.3333 22.5 22.0643 22.5 26.6666C22.5 31.2689 26.231 34.9999 30.8333 34.9999Z" fill="#757575"/>
<path d="M30.8333 32.4999C34.055 32.4999 36.6667 29.8883 36.6667 26.6666C36.6667 23.4449 34.055 20.8333 30.8333 20.8333C27.6117 20.8333 25 23.4449 25 26.6666C25 29.8883 27.6117 32.4999 30.8333 32.4999Z" fill="#191919"/>
<path d="M40.8333 19.1667H39.1666C38.9456 19.1667 38.7336 19.0788 38.5774 18.9226C38.4211 18.7663 38.3333 18.5543 38.3333 18.3333C38.3333 18.1123 38.4211 17.9003 38.5774 17.7441C38.7336 17.5878 38.9456 17.5 39.1666 17.5H40.8333C41.0543 17.5 41.2663 17.5878 41.4226 17.7441C41.5788 17.9003 41.6666 18.1123 41.6666 18.3333C41.6666 18.5543 41.5788 18.7663 41.4226 18.9226C41.2663 19.0788 41.0543 19.1667 40.8333 19.1667Z" fill="#191919"/>
<path d="M28.3333 27.4999C28.1123 27.4999 27.9003 27.4121 27.7441 27.2558C27.5878 27.0996 27.5 26.8876 27.5 26.6666C27.501 25.7828 27.8525 24.9356 28.4774 24.3107C29.1023 23.6858 29.9496 23.3343 30.8333 23.3333C31.0543 23.3333 31.2663 23.4211 31.4226 23.5773C31.5788 23.7336 31.6667 23.9456 31.6667 24.1666C31.6667 24.3876 31.5788 24.5996 31.4226 24.7558C31.2663 24.9121 31.0543 24.9999 30.8333 24.9999C30.3914 25.0003 29.9677 25.1761 29.6553 25.4886C29.3428 25.801 29.1671 26.2247 29.1667 26.6666C29.1667 26.8876 29.0788 27.0996 28.9226 27.2558C28.7663 27.4121 28.5543 27.4999 28.3333 27.4999Z" fill="white"/>
</svg>
