<svg width="50" height="50" viewBox="0 0 50 50" fill="none" xmlns="http://www.w3.org/2000/svg">
<path d="M24.249 26.6808L22.2853 25.9777C22.2197 25.9543 22.15 25.9442 22.0804 25.9481C22.0108 25.952 21.9428 25.9699 21.8802 26.0006C21.8176 26.0313 21.7618 26.0743 21.7162 26.127C21.6705 26.1797 21.6359 26.241 21.6144 26.3073L18.6584 35.4164H14.0628C13.9246 35.4164 13.7922 35.4713 13.6944 35.569C13.5968 35.6667 13.5419 35.7992 13.5419 35.9373V38.0208C13.5419 38.1588 13.5968 38.2913 13.6944 38.389C13.7922 38.4867 13.9246 38.5416 14.0628 38.5416H20.5474C20.6574 38.5415 20.7647 38.5067 20.8537 38.442C20.9427 38.3773 21.0089 38.2861 21.0428 38.1814L24.5691 27.332C24.6108 27.2032 24.6008 27.0631 24.5411 26.9415C24.4813 26.8199 24.3765 26.7265 24.249 26.6808Z" fill="#191919"/>
<path d="M26.0321 24.5612L22.11 23.1444C22.0443 23.1204 21.9745 23.11 21.9047 23.1138C21.8348 23.1175 21.7665 23.1354 21.7037 23.1663C21.641 23.1972 21.5851 23.2404 21.5393 23.2932C21.4936 23.346 21.4588 23.4075 21.4372 23.4741L20.6351 25.9534C20.5936 26.0819 20.6036 26.2215 20.663 26.3428C20.7225 26.464 20.8267 26.5575 20.9537 26.6034L24.8757 28.0149C24.9325 28.0356 24.9925 28.0462 25.0528 28.0462C25.1629 28.0462 25.2702 28.0114 25.3592 27.9467C25.4482 27.8819 25.5144 27.7907 25.5483 27.686L26.3504 25.2119C26.3922 25.0834 26.3823 24.9436 26.3229 24.8222C26.2635 24.7008 26.1592 24.6072 26.0321 24.5612Z" fill="#757575"/>
<path d="M39.9915 23.1041C39.9624 23.0422 39.9214 22.9866 39.8708 22.9406C39.8203 22.8947 39.7611 22.8591 39.6968 22.8361L36.7566 21.7776C36.6923 21.7543 36.6239 21.744 36.5556 21.7471C36.4873 21.7503 36.4203 21.7669 36.3583 21.796C36.2964 21.8251 36.2408 21.8661 36.1948 21.9167C36.1487 21.9673 36.1131 22.0265 36.0899 22.0909L34.6783 26.0116C34.6317 26.1415 34.6384 26.2847 34.6972 26.4096C34.756 26.5346 34.862 26.6311 34.9919 26.6779L37.9322 27.7364C37.9888 27.7571 38.0485 27.7676 38.1087 27.7676C38.2158 27.7676 38.3204 27.7345 38.4081 27.6728C38.4958 27.6112 38.5624 27.5241 38.5988 27.4232L40.0103 23.5026C40.0571 23.3726 40.0503 23.2291 39.9915 23.1041Z" fill="#191919"/>
<path d="M37.462 19.8171L14.9192 11.7011C14.8548 11.6777 14.7865 11.6673 14.7182 11.6705C14.6497 11.6736 14.5827 11.6901 14.5207 11.7193C14.4588 11.7484 14.4032 11.7894 14.3572 11.8401C14.3112 11.8907 14.2756 11.9499 14.2524 12.0143L12.1352 17.8953C11.9013 18.5452 11.9352 19.2613 12.2292 19.8862C12.5233 20.5111 13.0537 20.9936 13.7035 21.2276L34.2862 28.6381C34.3427 28.6587 34.4025 28.6693 34.4627 28.6693C34.5699 28.6695 34.6746 28.6365 34.7623 28.5748C34.8501 28.5131 34.9166 28.4259 34.9528 28.325L37.7757 20.4833C37.8223 20.3534 37.8156 20.2102 37.7567 20.0852C37.698 19.9603 37.5919 19.8638 37.462 19.8171Z" fill="white"/>
<path d="M41.6615 17.1852C41.6465 17.0936 41.6074 17.0075 41.548 16.9361C41.4886 16.8647 41.4112 16.8104 41.3238 16.7789L18.2906 8.48583C17.6406 8.25319 16.925 8.28769 16.3003 8.58174C15.6757 8.87574 15.1931 9.40533 14.9581 10.0545L14.2525 12.0142L14.076 12.5041L37.1089 20.7965C37.192 20.8266 37.2813 20.835 37.3685 20.8209C37.4557 20.8068 37.538 20.7707 37.6073 20.7161L41.4693 17.6779C41.5424 17.6204 41.5987 17.5444 41.6325 17.4577C41.6664 17.3712 41.6764 17.277 41.6615 17.1852Z" fill="#757575"/>
<path d="M19.9176 16.7897C19.8574 16.7898 19.7977 16.7792 19.7411 16.7585L15.8207 15.347C15.7546 15.3252 15.6936 15.2904 15.6412 15.2446C15.5887 15.1988 15.5461 15.143 15.5156 15.0804C15.4852 15.0178 15.4675 14.9498 15.4637 14.8803C15.4601 14.8108 15.4702 14.7413 15.4938 14.6758C15.5174 14.6103 15.5539 14.5502 15.6011 14.4992C15.6483 14.448 15.7052 14.4068 15.7687 14.3781C15.832 14.3493 15.9005 14.3336 15.9701 14.3317C16.0397 14.3298 16.1088 14.342 16.1737 14.3673L20.0941 15.7788C20.2092 15.8206 20.3058 15.9016 20.3672 16.0075C20.4285 16.1134 20.4506 16.2375 20.4295 16.3581C20.4084 16.4787 20.3456 16.588 20.252 16.6668C20.1583 16.7457 20.04 16.7894 19.9176 16.7897Z" fill="#757575"/>
<path d="M22.368 17.6716C22.3078 17.6716 22.2481 17.6611 22.1915 17.6406L21.2113 17.2875C21.1452 17.2658 21.084 17.231 21.0315 17.1852C20.979 17.1395 20.9362 17.0836 20.9057 17.021C20.8751 16.9584 20.8574 16.8903 20.8537 16.8207C20.8499 16.7511 20.8601 16.6816 20.8837 16.6161C20.9073 16.5505 20.9438 16.4904 20.9912 16.4392C21.0384 16.3881 21.0954 16.3468 21.1589 16.3181C21.2223 16.2894 21.2909 16.2736 21.3606 16.2719C21.4302 16.2701 21.4995 16.2824 21.5643 16.3079L22.5446 16.6609C22.6596 16.7026 22.7562 16.7836 22.8176 16.8895C22.8789 16.9954 22.901 17.1196 22.8799 17.2401C22.8588 17.3606 22.796 17.47 22.7024 17.5488C22.6088 17.6276 22.4904 17.6713 22.368 17.6716Z" fill="#757575"/>
<path d="M14.0628 34.3745H11.4585C11.1709 34.3745 10.9376 34.6078 10.9376 34.8954V39.0623C10.9376 39.3499 11.1709 39.5831 11.4585 39.5831H14.0628C14.3505 39.5831 14.5836 39.3499 14.5836 39.0623V34.8954C14.5836 34.6078 14.3505 34.3745 14.0628 34.3745Z" fill="#757575"/>
<path d="M11.4585 32.2913H8.85415C8.56648 32.2913 8.33331 32.5244 8.33331 32.8121V41.1458C8.33331 41.4335 8.56648 41.6667 8.85415 41.6667H11.4585C11.7461 41.6667 11.9793 41.4335 11.9793 41.1458V32.8121C11.9793 32.5244 11.7461 32.2913 11.4585 32.2913Z" fill="#191919"/>
</svg>
