<svg width="50" height="50" viewBox="0 0 50 50" fill="none" xmlns="http://www.w3.org/2000/svg">
<path d="M33.698 5.83325H15.7292C14.406 5.83325 13.3334 6.9059 13.3334 8.22909V41.7708C13.3334 43.0939 14.406 44.1666 15.7292 44.1666H33.698C35.0211 44.1666 36.0938 43.0939 36.0938 41.7708V8.22909C36.0938 6.9059 35.0211 5.83325 33.698 5.83325Z" fill="white"/>
<path d="M33.698 7.63037H29.5052C29.3796 7.63031 29.2571 7.66984 29.1552 7.74334C29.0532 7.81683 28.977 7.92056 28.9373 8.03982L28.4747 9.42725H20.9526L20.4899 8.03982C20.4502 7.92056 20.374 7.81683 20.2721 7.74334C20.1702 7.66984 20.0477 7.63031 19.9219 7.63037H15.7292C15.5704 7.63037 15.4181 7.69348 15.3057 7.8058C15.1934 7.91813 15.1302 8.07048 15.1302 8.22933V41.771C15.1302 41.9298 15.1934 42.0822 15.3057 42.1945C15.4181 42.3068 15.5704 42.37 15.7292 42.37H33.698C33.8568 42.37 34.0092 42.3068 34.1215 42.1945C34.2338 42.0822 34.2969 41.9298 34.2969 41.771V8.22933C34.2969 8.07048 34.2338 7.91813 34.1215 7.8058C34.0092 7.69348 33.8568 7.63037 33.698 7.63037Z" fill="#191919"/>
<path d="M25.3124 8.82833H21.7187C21.5598 8.82833 21.4075 8.76516 21.2952 8.65283C21.1828 8.5405 21.1198 8.38816 21.1198 8.22933C21.1198 8.07048 21.1828 7.91813 21.2952 7.8058C21.4075 7.69348 21.5598 7.63037 21.7187 7.63037H25.3124C25.4713 7.63037 25.6236 7.69348 25.7359 7.8058C25.8483 7.91813 25.9114 8.07048 25.9114 8.22933C25.9114 8.38816 25.8483 8.5405 25.7359 8.65283C25.6236 8.76516 25.4713 8.82833 25.3124 8.82833Z" fill="#191919"/>
<path d="M27.7083 8.82833H27.1093C26.9505 8.82833 26.7981 8.76516 26.6858 8.65283C26.5735 8.5405 26.5104 8.38816 26.5104 8.22933C26.5104 8.07048 26.5735 7.91813 26.6858 7.8058C26.7981 7.69348 26.9505 7.63037 27.1093 7.63037H27.7083C27.8671 7.63037 28.0195 7.69348 28.1318 7.8058C28.2441 7.91813 28.3073 8.07048 28.3073 8.22933C28.3073 8.38816 28.2441 8.5405 28.1318 8.65283C28.0195 8.76516 27.8671 8.82833 27.7083 8.82833Z" fill="#191919"/>
</svg>
