<svg width="50" height="50" viewBox="0 0 50 50" fill="none" xmlns="http://www.w3.org/2000/svg">
<path d="M39.3229 10.8333H10.6771C9.81408 10.8343 8.98667 11.1776 8.37642 11.7878C7.76617 12.3981 7.42289 13.2254 7.42188 14.0884V33.6198C7.42188 33.7924 7.49047 33.958 7.61256 34.0801C7.73466 34.2022 7.90025 34.2708 8.07292 34.2708H13.2813V34.9218C13.2818 35.4396 13.4878 35.9361 13.8539 36.3023C14.2201 36.6684 14.7166 36.8743 15.2343 36.8749H34.7657C35.2834 36.8743 35.7799 36.6684 36.1461 36.3023C36.5123 35.9361 36.7182 35.4396 36.7188 34.9218V34.2708H41.9271C42.0998 34.2708 42.2653 34.2022 42.3874 34.0801C42.5095 33.958 42.5782 33.7924 42.5782 33.6198V14.0884C42.5771 13.2254 42.2338 12.3981 41.6236 11.7878C41.0133 11.1776 40.1859 10.8343 39.3229 10.8333Z" fill="white"/>
<path d="M39.3229 13.4375H26.9532C26.7804 13.4375 26.6148 13.5061 26.4928 13.6282C26.3707 13.7502 26.3021 13.9158 26.3021 14.0885C26.3021 14.4339 26.1649 14.7651 25.9208 15.0093C25.6765 15.2534 25.3453 15.3907 25 15.3907C24.6547 15.3907 24.3235 15.2534 24.0793 15.0093C23.8351 14.7651 23.6979 14.4339 23.6979 14.0885C23.6979 13.9158 23.6293 13.7502 23.5073 13.6282C23.3852 13.5061 23.2196 13.4375 23.0468 13.4375H10.6771C10.5044 13.4375 10.3388 13.5061 10.2168 13.6282C10.0947 13.7502 10.026 13.9158 10.026 14.0885V29.7135C10.026 29.8863 10.0947 30.0518 10.2168 30.1739C10.3388 30.296 10.5044 30.3646 10.6771 30.3646H39.3229C39.4956 30.3646 39.6612 30.296 39.7833 30.1739C39.9053 30.0518 39.974 29.8863 39.974 29.7135V14.0885C39.974 13.9158 39.9053 13.7502 39.7833 13.6282C39.6612 13.5061 39.4956 13.4375 39.3229 13.4375Z" fill="#191919"/>
<path d="M25 14.7396C25.3596 14.7396 25.651 14.4481 25.651 14.0885C25.651 13.729 25.3596 13.4375 25 13.4375C24.6404 13.4375 24.349 13.729 24.349 14.0885C24.349 14.4481 24.6404 14.7396 25 14.7396Z" fill="#191919"/>
<path d="M45.1824 32.9688H36.0677C35.8951 32.9688 35.7294 33.0373 35.6074 33.1594C35.4853 33.2815 35.4167 33.4471 35.4167 33.6198V34.9218C35.4165 35.0945 35.3479 35.26 35.2259 35.3821C35.1038 35.5041 34.9383 35.5727 34.7657 35.5729H15.2344C15.0618 35.5727 14.8964 35.504 14.7743 35.382C14.6523 35.2599 14.5836 35.0945 14.5834 34.9218V33.6198C14.5834 33.4471 14.5148 33.2815 14.3927 33.1594C14.2706 33.0373 14.105 32.9688 13.9324 32.9688H4.81773C4.64506 32.9688 4.47947 33.0373 4.35737 33.1594C4.23528 33.2815 4.16669 33.4471 4.16669 33.6198V34.9218C4.16803 36.1302 4.6486 37.2885 5.50297 38.1429C6.35734 38.9972 7.51572 39.4778 8.72402 39.4792H41.276C42.4843 39.4777 43.6427 38.9972 44.497 38.1428C45.3514 37.2885 45.8319 36.1301 45.8334 34.9218V33.6198C45.8334 33.4471 45.7648 33.2815 45.6427 33.1594C45.5206 33.0373 45.3549 32.9688 45.1824 32.9688Z" fill="#757575"/>
</svg>
